# xmcd
#
# Track frame offsets:
#	150
#	16900
#	28062
#	39976
#	54221
#	72883
#	93356
#
# Disc length: 1503 seconds
#
# Revision: 1
# Processed by: cddbd v1.5.2PL0 Copyright (c) Steve Scherf et al.
# Submitted via: audiograbber 1.83.01
#
DISCID=4b05dd07
DTITLE=Pale Blue Dot - Western Scene Disk 1
DYEAR=2006
DGENRE=Western
TTITLE0=I've Got a Light
TTITLE1=Married Woman (Heart on Fire)
TTITLE2=Things That Aren't Even There
TTITLE3=Western Scene
TTITLE4=New York Crush
TTITLE5=Town and Country
TTITLE6=Big Plans
EXTD=
EXTT0=
EXTT1=
EXTT2=
EXTT3=
EXTT4=
EXTT5=
EXTT6=
PLAYORDER=
